# xmcd CD database file
#
# Track frame offsets:
#	150
#	16190
#	30725
#	55125
#	68530
#	81810
#	101557
#	122672
#	138767
#	158232
#
# Disc length: 2401 seconds
#
# Revision: 2
# Processed by: cddbd v1.5.1PL0 Copyright (c) Steve Scherf et al.
# Submitted via: CDex 1.51
#
DISCID=73095f0a
DTITLE=Ronnie Earl - Ronnie Earl Play Big Blues
DYEAR=1997
DGENRE=Blues
TTITLE0=I Want to Shout About It
TTITLE1=Bonehead Too
TTITLE2=Peace of Mind
TTITLE3=Off the Hool
TTITLE4=Ronnie Johnnie
TTITLE5=I Smell Trouble
TTITLE6=Blind Love
TTITLE7=I Wish You Could See Me Now
TTITLE8=Backstroke
TTITLE9=Ships Passing in the Night
EXTD=YEAR: 1997
EXTT0=
EXTT1=
EXTT2=
EXTT3=
EXTT4=
EXTT5=
EXTT6=
EXTT7=
EXTT8=
EXTT9=
PLAYORDER=
